<?xml version="1.0" standalone="no"?>
<!DOCTYPE svg PUBLIC "-//W3C//DTD SVG 20010904//EN"
 "http://www.w3.org/TR/2001/REC-SVG-20010904/DTD/svg10.dtd">
<svg version="1.0" xmlns="http://www.w3.org/2000/svg"
 width="354.000000pt" height="353.000000pt" viewBox="0 0 354.000000 353.000000"
 preserveAspectRatio="xMidYMid meet">
<g transform="translate(0.000000,353.000000) scale(0.100000,-0.100000)"
fill="#000000" stroke="none">
<path d="M1176 3362 c-3 -5 1 -9 9 -9 8 0 12 4 9 9 -3 4 -7 8 -9 8 -2 0 -6 -4
-9 -8z"/>
<path d="M2679 3368 c-8 -27 -5 -36 9 -30 10 4 12 7 4 10 -7 2 -10 8 -6 13 3
5 3 9 0 9 -3 0 -6 -1 -7 -2z"/>
<path d="M2805 3346 c-102 -25 -170 -81 -214 -175 -26 -55 -26 -59 -26 -277
l0 -220 -45 28 c-139 88 -346 90 -489 5 -101 -61 -199 -189 -217 -285 -6 -29
-10 -33 -30 -28 -13 4 -44 9 -68 12 l-43 6 -6 65 c-13 163 -157 327 -327 373
-72 20 -198 14 -266 -11 -117 -43 -226 -145 -264 -247 -39 -102 -45 -174 -24
-283 4 -22 0 -28 -25 -39 -61 -25 -161 -164 -161 -223 0 -30 -19 -57 -41 -57
-37 0 -125 -49 -174 -97 -53 -53 -89 -121 -106 -202 -32 -153 61 -330 209
-399 54 -26 66 -27 262 -32 113 -3 217 -1 232 3 33 11 46 52 23 77 -14 16 -40
18 -218 22 -191 3 -205 5 -251 28 -88 45 -156 149 -156 241 0 47 32 128 67
168 40 48 124 91 175 91 50 0 78 28 78 78 0 91 60 185 145 227 29 15 61 20
116 20 67 0 81 -4 125 -30 27 -17 65 -52 84 -78 49 -66 76 -65 128 6 94 127
186 179 327 185 73 3 102 0 152 -17 106 -36 118 -29 134 69 19 122 98 227 207
278 50 24 69 27 157 27 116 -1 161 -17 238 -85 l47 -42 0 -455 0 -455 -24 -19
c-35 -28 -95 -122 -115 -182 l-18 -52 -91 -3 c-85 -3 -93 -5 -108 -27 -15 -23
-15 -27 0 -50 19 -28 16 -28 112 -25 l71 2 8 -57 c26 -208 172 -376 367 -420
166 -37 309 1 434 117 194 182 206 479 27 678 l-43 47 -2 744 -3 744 -26 55
c-64 134 -211 210 -344 176z m146 -38 c4 -6 12 -7 19 -3 9 6 11 4 5 -5 -6 -10
-4 -12 8 -7 10 3 17 2 17 -4 0 -6 5 -7 10 -4 6 3 10 1 10 -4 0 -6 5 -11 10
-11 9 0 33 -23 68 -66 14 -16 33 -53 40 -77 6 -22 10 -290 14 -1098 l3 -416
35 -40 c19 -22 42 -49 50 -59 23 -30 61 -112 58 -126 -1 -7 4 -23 11 -36 12
-22 12 -171 0 -212 -16 -52 -43 -109 -50 -104 -5 3 -7 -1 -4 -8 7 -17 -63
-102 -113 -138 -35 -25 -76 -46 -127 -65 -19 -8 -109 -25 -130 -25 -33 -1
-104 10 -128 19 -16 6 -33 9 -38 5 -5 -3 -9 0 -9 6 0 7 -7 9 -17 6 -10 -4 -14
-4 -10 0 4 4 -11 15 -33 25 -22 10 -51 29 -64 42 -14 14 -27 22 -30 19 -3 -3
-6 2 -6 11 0 9 -6 20 -13 24 -44 28 -101 154 -113 251 -6 45 -11 55 -35 68
-16 8 -32 14 -36 13 -4 -1 -34 -1 -65 0 -53 1 -58 3 -56 24 2 21 5 22 71 19
102 -5 114 0 143 64 14 30 22 59 19 64 -3 5 3 13 12 19 10 6 15 11 11 11 -5 0
1 10 11 23 11 12 35 42 55 65 l36 44 0 449 c0 431 -1 450 -20 481 -11 18 -20
30 -20 26 0 -4 -15 7 -32 23 -41 38 -112 75 -163 85 -59 11 -167 6 -182 -9 -3
-4 -15 -7 -26 -7 -21 0 -87 -36 -99 -54 -4 -6 -8 -7 -8 -2 0 6 -7 1 -16 -10
-8 -10 -12 -13 -8 -5 5 9 3 12 -4 7 -7 -4 -12 -14 -12 -22 0 -8 -6 -17 -14
-20 -8 -3 -31 -33 -51 -66 -34 -59 -47 -97 -61 -183 -4 -22 -9 -34 -11 -27 -4
10 -8 10 -19 1 -10 -8 -14 -8 -14 0 0 6 -8 11 -18 11 -10 0 -22 3 -26 7 -3 4
-12 8 -19 9 -7 1 -34 7 -60 13 -26 6 -58 9 -70 6 -20 -4 -92 -14 -124 -17 -7
-1 -13 -5 -13 -10 0 -5 -4 -6 -10 -3 -5 3 -10 1 -10 -5 0 -6 -4 -8 -10 -5 -5
3 -10 1 -10 -5 0 -6 -4 -9 -9 -6 -7 5 -56 -29 -106 -73 -21 -19 -62 -67 -79
-93 -23 -35 -36 -35 -68 1 -20 22 -23 32 -15 40 9 9 8 11 -5 6 -11 -4 -18 -2
-18 4 0 6 -5 11 -11 11 -6 0 -16 6 -24 13 -37 35 -55 46 -55 34 0 -8 -3 -7
-10 3 -13 20 -210 18 -210 -2 0 -5 -4 -7 -9 -3 -5 3 -12 1 -16 -5 -4 -6 -11
-7 -17 -4 -7 5 -8 2 -4 -5 5 -8 1 -14 -12 -18 -25 -6 -90 -87 -99 -123 -3 -14
-9 -29 -13 -35 -3 -5 -7 -26 -8 -45 -3 -51 -10 -65 -29 -68 -81 -9 -145 -36
-193 -82 -65 -63 -94 -127 -92 -209 2 -68 19 -141 34 -141 4 0 8 -5 8 -10 0
-9 15 -28 62 -76 11 -12 32 -27 47 -34 14 -7 35 -17 46 -24 12 -7 91 -12 205
-14 102 -1 196 -5 209 -8 21 -4 22 -7 10 -19 -11 -11 -54 -15 -199 -15 -192
-1 -273 11 -309 44 -10 9 -22 16 -27 16 -15 0 -41 35 -36 49 3 8 0 11 -6 8 -5
-4 -15 0 -22 8 -7 8 -16 13 -19 10 -4 -2 -8 1 -9 8 -1 7 -12 42 -25 80 -19 51
-23 81 -20 125 3 31 5 67 6 80 1 12 6 22 11 22 4 0 6 7 2 15 -3 8 -1 15 5 15
6 0 9 7 5 15 -3 8 -2 14 2 12 4 -1 7 1 7 5 0 4 33 39 73 77 56 53 78 68 94 63
16 -4 19 -2 13 8 -5 8 -4 11 2 7 14 -9 85 12 78 24 -4 5 -2 9 4 9 6 0 13 17
17 37 9 48 40 117 59 133 8 7 12 17 8 23 -3 5 -1 7 5 3 6 -3 20 8 32 24 12 17
24 29 27 27 2 -3 15 5 28 17 23 22 24 29 24 133 0 112 6 158 24 181 5 6 6 12
2 12 -5 0 -1 8 7 18 9 9 19 27 22 39 4 11 14 24 22 27 8 3 12 11 9 16 -4 6 -3
9 2 8 4 -2 9 0 11 5 4 13 42 47 52 47 6 0 13 6 16 14 3 9 12 12 21 9 12 -5 14
-3 8 7 -6 10 -4 12 8 7 10 -4 16 -2 14 5 -1 7 3 12 8 13 6 0 15 3 20 7 26 16
135 34 190 31 58 -4 189 -45 201 -64 3 -5 15 -9 27 -9 18 0 19 -2 7 -10 -13
-8 -12 -10 3 -10 11 0 17 -6 15 -17 -2 -10 3 -18 12 -18 13 0 70 -49 70 -60 0
-2 10 -21 22 -41 12 -21 23 -44 24 -53 6 -41 13 -76 15 -76 1 0 2 -11 3 -25 4
-59 44 -81 141 -80 36 1 36 1 65 75 28 71 80 154 97 154 7 1 19 13 27 29 8 15
15 24 16 20 0 -4 16 4 36 17 42 29 134 64 184 72 65 9 118 8 112 -1 -3 -5 2
-7 11 -3 9 3 34 0 56 -8 22 -7 42 -11 45 -8 3 4 6 1 6 -5 0 -6 13 -13 30 -17
16 -4 33 -12 37 -19 5 -7 20 -16 35 -20 45 -11 50 14 49 230 -3 267 16 321
135 395 22 13 42 23 46 22 4 -2 19 4 34 12 30 15 134 10 145 -7z"/>
<path d="M2830 3270 c-78 -17 -135 -65 -171 -145 -17 -37 -18 -90 -19 -778 0
-659 -2 -742 -16 -770 -20 -38 -39 -58 -48 -50 -3 4 -6 1 -6 -6 0 -6 -9 -21
-20 -33 -11 -12 -20 -28 -20 -35 0 -9 -5 -11 -12 -7 -7 4 -10 4 -6 -1 4 -4 4
-13 -1 -19 -12 -15 -29 -80 -37 -143 -12 -102 34 -225 115 -311 45 -47 88 -78
104 -74 4 1 7 -3 7 -9 0 -5 5 -7 10 -4 6 3 10 2 10 -3 0 -16 134 -34 201 -26
68 7 159 40 159 57 0 6 2 8 5 5 8 -8 91 71 87 83 -1 6 2 8 7 5 5 -3 23 21 40
54 17 33 29 60 25 60 -4 0 -1 7 6 15 6 8 8 20 4 26 -4 7 -3 9 4 5 12 -7 10
146 -3 199 -13 52 -52 118 -100 169 -25 27 -48 58 -50 70 -3 11 -6 352 -8 756
-2 404 -6 742 -8 750 -19 51 -30 71 -44 76 -8 3 -12 10 -9 15 3 5 -8 14 -23
21 -15 7 -30 16 -33 19 -4 6 -112 41 -114 38 -1 -1 -17 -5 -36 -9z m128 -49
c47 -24 77 -56 97 -103 13 -33 15 -132 15 -780 0 -723 1 -744 20 -775 11 -18
24 -33 28 -33 12 0 85 -107 103 -150 9 -22 14 -71 14 -130 0 -83 -3 -102 -28
-151 -63 -129 -173 -207 -305 -217 -228 -16 -419 177 -398 402 8 91 40 159
110 235 l56 61 0 742 c0 488 4 756 11 781 12 46 57 99 101 120 45 23 130 21
176 -2z"/>
<path d="M2779 3163 c-13 -16 -12 -17 4 -4 16 13 21 21 13 21 -2 0 -10 -8 -17
-17z"/>
<path d="M2842 2924 l-22 -15 0 -709 0 -708 -34 -12 c-89 -29 -156 -127 -156
-227 1 -138 102 -237 240 -237 139 0 240 102 240 243 0 90 -73 194 -155 221
l-30 10 3 700 2 701 -24 24 c-29 29 -34 30 -64 9z m58 -729 c-1 -381 1 -699 2
-706 4 -18 26 -34 58 -44 14 -4 33 -17 43 -29 10 -11 16 -14 12 -6 -12 28 26
-25 44 -60 21 -42 26 -128 11 -175 -6 -19 -24 -45 -40 -59 -16 -13 -26 -27
-22 -31 4 -4 2 -5 -3 -4 -6 2 -23 -5 -38 -15 -46 -31 -207 -26 -207 6 0 5 -4
7 -8 4 -5 -3 -26 18 -47 45 -31 41 -39 61 -45 112 -5 52 -2 69 16 107 24 49
72 103 84 95 4 -3 13 2 20 10 7 8 20 15 29 15 40 0 40 13 41 736 0 715 1 732
37 702 11 -9 13 -146 13 -703z"/>
<path d="M2828 1412 c-10 -2 -18 -8 -18 -13 0 -5 -3 -8 -7 -7 -13 4 -73 -44
-67 -54 3 -4 0 -8 -6 -8 -6 0 -8 -4 -5 -10 3 -5 1 -10 -4 -10 -18 0 -13 -93 6
-119 12 -18 13 -22 2 -16 -8 4 3 -9 25 -29 21 -20 51 -40 67 -43 16 -3 27 -8
25 -12 -6 -8 67 -1 74 8 3 3 18 13 35 21 46 24 71 69 74 134 1 34 -2 56 -8 56
-6 0 -10 3 -9 8 5 15 -23 51 -44 58 -22 7 -22 7 -3 15 l20 8 -20 1 c-11 1 -42
5 -70 8 -27 4 -58 6 -67 4z m104 -43 c15 -6 37 -26 48 -44 45 -72 12 -167 -68
-195 -154 -53 -245 173 -97 241 41 19 69 18 117 -2z"/>
<path d="M1164 2778 c-4 -6 -15 -8 -25 -5 -10 3 -22 1 -25 -4 -3 -5 -10 -7
-15 -4 -5 4 -9 1 -9 -4 0 -6 -9 -11 -20 -11 -11 0 -20 -5 -20 -11 0 -5 -3 -8
-8 -5 -4 2 -25 -11 -46 -30 -21 -19 -43 -34 -49 -34 -6 0 -7 -3 -4 -7 4 -4 -4
-18 -17 -32 -53 -56 -88 -201 -67 -278 9 -34 17 -43 44 -51 17 -6 52 -9 77 -7
25 2 49 0 55 -3 5 -4 18 -8 28 -9 25 -4 106 -50 119 -67 3 -5 19 -15 35 -23
15 -7 19 -11 8 -8 -16 5 -18 4 -7 -7 10 -10 24 -1 72 52 33 36 60 61 60 57 0
-7 11 0 45 31 8 7 19 11 24 7 6 -3 14 3 20 12 6 10 11 15 11 11 0 -12 125 35
134 51 12 19 17 63 8 57 -4 -2 -8 8 -8 22 -2 64 -4 73 -15 67 -6 -4 -9 -1 -8
6 4 23 -17 62 -50 96 -17 18 -31 38 -31 43 0 6 -4 8 -10 5 -5 -3 -10 -2 -10 2
0 13 -101 70 -140 78 -53 12 -150 13 -156 3z m185 -47 c119 -45 202 -155 212
-281 l4 -43 -55 -14 c-85 -21 -159 -63 -224 -126 l-59 -58 -19 21 c-55 59
-172 103 -260 99 l-53 -3 -7 44 c-16 94 23 212 95 284 100 99 233 128 366 77z"/>
<path d="M1125 3341 c-3 -5 -2 -12 3 -15 5 -3 9 1 9 9 0 17 -3 19 -12 6z"/>
<path d="M2643 3335 c0 -8 4 -12 9 -9 5 3 6 10 3 15 -9 13 -12 11 -12 -6z"/>
<path d="M2169 3309 c-17 -17 -19 -28 -14 -70 l6 -49 -53 0 c-59 0 -70 -5 -87
-38 -10 -19 -10 -28 4 -48 13 -21 23 -24 75 -24 l59 0 -1 -56 c-2 -48 1 -59
21 -75 31 -25 43 -24 71 6 19 20 22 32 18 75 l-5 50 58 0 c48 0 60 4 73 22 21
30 20 44 -4 68 -15 15 -33 20 -72 20 l-53 0 3 49 c3 39 0 53 -17 70 -27 27
-55 27 -82 0z m61 -16 c8 -123 19 -140 83 -136 38 2 46 -1 55 -21 8 -19 8 -25
-3 -30 -8 -3 -17 -1 -20 4 -3 5 -18 5 -34 0 -16 -4 -32 -6 -35 -2 -13 12 -35
-35 -36 -75 0 -23 -5 -45 -10 -48 -6 -4 -8 -10 -5 -15 3 -4 -2 -7 -11 -6 -23
4 -34 29 -30 67 6 54 -15 74 -82 76 -31 1 -58 2 -59 2 -1 1 1 11 6 23 7 18 17
22 61 25 62 3 73 14 77 82 2 40 14 60 36 61 4 0 7 -3 7 -7z"/>
<path d="M1180 3291 c-5 -11 -10 -61 -10 -111 0 -110 8 -130 55 -130 47 0 55
20 55 134 0 73 -4 98 -16 110 -22 23 -71 20 -84 -3z m66 -43 c17 -81 4 -171
-24 -166 -14 3 -18 19 -22 80 -3 42 -1 74 3 71 5 -3 8 3 7 13 -3 29 -1 34 14
34 8 0 18 -14 22 -32z"/>
<path d="M609 3057 c-16 -8 -25 -22 -27 -43 -3 -26 7 -40 73 -103 51 -50 80
-71 91 -67 9 3 19 6 23 6 13 0 32 51 24 65 -13 22 -123 134 -142 144 -11 6
-26 6 -42 -2z m93 -79 c50 -49 66 -84 44 -100 -6 -4 -19 3 -31 15 -12 12 -40
39 -63 60 -45 40 -56 77 -23 77 11 0 44 -23 73 -52z"/>
<path d="M693 2939 c-2 -23 3 -25 10 -4 4 8 3 16 -1 19 -4 3 -9 -4 -9 -15z"/>
<path d="M1794 3058 c-32 -17 -144 -139 -144 -157 0 -24 21 -48 48 -56 19 -5
35 6 97 66 57 55 75 79 75 99 0 41 -40 66 -76 48z m48 -40 c-7 -7 -12 -20 -12
-29 0 -10 -5 -21 -12 -25 -7 -5 -8 -3 -3 7 5 8 -16 -12 -47 -45 -31 -32 -61
-55 -66 -52 -38 23 66 154 123 155 22 1 26 -2 17 -11z"/>
<path d="M755 3039 c-4 -6 -5 -12 -2 -15 2 -3 7 2 10 11 7 17 1 20 -8 4z"/>
<path d="M1856 2628 c3 -5 10 -6 15 -3 13 9 11 12 -6 12 -8 0 -12 -4 -9 -9z"/>
<path d="M352 2454 c-26 -18 -29 -56 -6 -78 12 -13 38 -16 119 -16 96 0 105 2
119 22 21 30 20 44 -4 68 -17 17 -33 20 -113 20 -68 0 -99 -4 -115 -16z m198
-27 c0 -4 4 -6 9 -3 5 4 7 -3 4 -14 -6 -23 -1 -21 -104 -23 -68 -2 -78 0 -93
20 -16 21 -16 22 0 16 10 -3 15 -2 12 3 -4 5 31 9 83 9 49 1 89 -3 89 -8z"/>
<path d="M1425 2191 c-3 -5 -2 -12 3 -15 5 -3 9 1 9 9 0 17 -3 19 -12 6z"/>
<path d="M1421 1883 c-20 -17 -207 -500 -218 -563 -2 -14 2 -34 10 -44 13 -18
26 -19 126 -17 62 1 111 -2 111 -7 0 -5 -13 -56 -29 -113 -76 -270 -141 -517
-141 -535 0 -11 5 -25 12 -32 13 -13 57 -16 74 -4 9 6 145 161 629 715 66 76
124 146 129 157 6 13 4 27 -8 45 -16 25 -17 25 -172 25 -145 0 -156 1 -149 18
4 9 29 84 55 166 51 156 52 174 10 196 -11 6 -101 10 -218 10 -176 0 -202 -2
-221 -17z m433 -59 c-1 -30 -17 -90 -34 -129 -5 -11 -20 -56 -34 -100 -34
-112 -33 -113 155 -114 99 -1 146 -6 151 -14 8 -13 -13 -51 -46 -83 -11 -11
-34 -38 -51 -60 -16 -21 -51 -60 -77 -85 -27 -25 -48 -50 -48 -54 0 -5 -19
-27 -43 -49 -24 -23 -48 -48 -53 -57 -5 -9 -27 -37 -48 -63 -33 -38 -42 -43
-55 -33 -12 10 -13 9 -3 -8 9 -17 5 -25 -26 -56 -36 -35 -46 -46 -120 -134
-75 -89 -138 -160 -161 -182 -46 -44 -63 9 -30 93 6 16 12 36 13 44 3 27 37
154 47 172 5 10 6 25 2 34 -4 12 -3 15 5 10 7 -4 12 -4 13 1 2 30 9 65 19 104
7 24 14 52 16 61 2 10 7 28 10 41 14 48 16 107 4 107 -6 0 -9 4 -6 8 3 5 -43
9 -102 10 -58 2 -110 6 -114 10 -9 9 19 111 52 192 29 73 33 85 32 93 -1 4 2
7 7 7 5 0 14 20 20 44 6 25 15 48 21 51 5 3 10 19 10 35 0 15 5 30 11 32 5 2
11 18 11 36 1 17 5 32 9 32 4 0 11 9 14 20 6 20 13 20 218 18 l212 -3 -1 -31z"/>
<path d="M1474 1797 c-20 -22 -69 -134 -78 -179 -2 -13 -18 -56 -34 -95 -16
-40 -27 -73 -23 -73 3 0 1 -4 -4 -8 -6 -4 -16 -20 -23 -35 -10 -24 -9 -32 5
-52 17 -23 24 -24 116 -25 76 0 96 -3 91 -12 -6 -10 -5 -10 7 -1 12 10 15 8
16 -9 1 -12 -2 -29 -7 -38 -5 -9 -11 -29 -14 -43 -2 -14 -14 -61 -26 -104 -12
-43 -23 -85 -24 -93 -1 -8 -7 -25 -14 -38 -8 -13 -11 -30 -8 -37 2 -7 2 -16
-2 -19 -7 -8 -12 -29 -19 -76 -3 -27 0 -38 15 -46 16 -10 24 -6 59 32 22 24
38 44 36 44 -2 0 6 11 19 23 26 27 128 142 200 227 26 30 57 64 68 76 11 12
20 24 20 27 0 4 17 23 38 44 20 21 36 41 34 45 -1 5 2 8 8 8 5 0 17 11 26 25
13 20 14 27 2 43 -16 24 -5 22 -142 22 -111 0 -115 1 -118 23 -2 12 8 58 23
102 15 44 38 113 50 153 32 103 29 105 -143 109 -127 2 -134 2 -154 -20z m286
-16 c0 -4 -23 -79 -51 -167 -69 -217 -68 -218 129 -212 62 2 111 0 110 -3 -2
-4 -112 -132 -246 -285 -165 -189 -241 -283 -237 -293 5 -12 3 -13 -5 -5 -8 8
-2 46 25 145 20 74 50 181 66 239 32 118 32 119 19 140 -7 11 -37 16 -123 20
l-114 5 74 200 c40 110 75 206 78 213 5 14 275 18 275 3z"/>
<path d="M1686 1178 c3 -5 10 -6 15 -3 13 9 11 12 -6 12 -8 0 -12 -4 -9 -9z"/>
<path d="M2163 1235 c0 -8 4 -12 9 -9 5 3 6 10 3 15 -9 13 -12 11 -12 -6z"/>
<path d="M388 1059 c-10 -5 -18 -14 -18 -19 0 -5 -23 -56 -51 -114 -54 -113
-57 -138 -14 -158 41 -18 66 9 124 136 52 112 53 116 37 141 -17 26 -48 32
-78 14z m47 -19 c-3 -5 -2 -10 3 -10 13 0 10 -33 -5 -48 -7 -8 -11 -18 -8 -23
4 -5 1 -9 -6 -9 -7 0 -9 -3 -6 -7 4 -3 0 -15 -10 -25 -9 -10 -13 -18 -9 -18 8
0 -44 -92 -58 -102 -17 -11 -34 3 -32 27 0 13 4 21 9 18 4 -2 7 2 7 10 0 7 14
40 30 72 17 32 30 63 30 68 0 5 11 20 26 33 26 25 40 31 29 14z"/>
<path d="M973 1062 c-7 -4 -38 -61 -68 -127 -48 -99 -55 -122 -46 -142 13 -28
55 -40 78 -22 17 15 123 232 123 253 0 32 -57 57 -87 38z m44 -49 c-11 -56
-14 -65 -23 -71 -5 -4 -10 -14 -12 -22 -2 -8 -14 -36 -27 -61 -13 -26 -22 -49
-19 -53 2 -3 1 -4 -2 -1 -4 2 -16 0 -27 -6 -13 -7 -17 -7 -13 -1 3 6 2 13 -4
17 -6 4 -2 20 10 43 11 20 20 41 20 45 0 5 9 20 20 34 11 14 20 33 20 42 0 24
29 61 47 61 11 0 14 -7 10 -27z"/>
<path d="M2183 953 c-35 -54 -110 -228 -105 -245 6 -25 39 -41 68 -34 20 5 36
30 80 123 58 124 62 143 38 167 -24 25 -61 20 -81 -11z m52 -12 c-3 -2 -1 -9
5 -16 6 -7 4 -21 -5 -39 -8 -15 -12 -33 -8 -39 3 -5 1 -7 -4 -4 -6 4 -14 -5
-18 -21 -10 -42 -53 -110 -78 -123 -12 -7 -19 -8 -15 -4 4 4 3 16 -3 26 -6 13
-6 19 1 19 5 0 9 3 8 8 -2 11 13 45 31 66 13 16 13 18 1 11 -12 -6 -11 -4 2
11 9 10 20 31 23 46 4 16 12 25 18 21 5 -3 7 -1 4 5 -11 17 2 38 23 38 10 0
17 -2 15 -5z"/>
<path d="M3255 911 c-3 -5 -2 -12 3 -15 5 -3 9 1 9 9 0 17 -3 19 -12 6z"/>
<path d="M628 578 c-8 -7 -39 -64 -69 -126 -44 -95 -51 -117 -43 -140 7 -20
17 -28 39 -30 17 -1 35 1 41 5 17 12 114 223 114 248 0 24 -28 55 -51 55 -9 0
-22 -6 -31 -12z m36 -92 c-10 -22 -27 -52 -38 -66 -20 -23 -20 -24 -1 -10 19
14 19 14 3 -5 -9 -11 -20 -33 -24 -48 -3 -16 -13 -31 -20 -34 -8 -3 -11 -10
-7 -17 4 -7 1 -7 -9 1 -8 7 -18 10 -21 6 -4 -3 -5 7 -3 23 4 31 61 150 77 160
5 3 7 14 4 25 -5 14 0 21 17 28 35 13 44 -12 22 -63z"/>
<path d="M1837 572 c-20 -22 -117 -227 -117 -247 0 -23 30 -45 61 -45 28 0 33
7 89 122 61 125 65 149 32 176 -22 17 -46 15 -65 -6z m48 -69 c-3 -14 -13 -37
-23 -51 -9 -14 -17 -30 -18 -36 -5 -28 -51 -101 -67 -104 -32 -6 -28 25 18
124 50 107 73 135 88 108 5 -8 6 -27 2 -41z"/>
<path d="M2467 578 c-21 -16 -117 -223 -117 -252 0 -51 65 -64 99 -20 12 15
21 30 21 35 0 5 18 45 40 90 45 91 49 118 22 142 -22 20 -42 21 -65 5z m42
-27 c9 -6 11 -18 7 -35 -3 -14 -7 -29 -8 -33 -1 -5 -10 -17 -20 -27 -10 -11
-18 -23 -18 -27 0 -3 -10 -28 -22 -55 -12 -27 -21 -53 -20 -57 1 -5 -8 -7 -20
-5 -28 4 -35 34 -13 57 9 10 15 22 14 27 -3 12 71 164 80 164 3 0 12 -4 20 -9z"/>
<path d="M3027 578 c-21 -16 -117 -223 -117 -252 0 -52 66 -64 97 -18 29 42
103 208 103 231 0 19 -34 51 -55 51 -6 0 -19 -6 -28 -12z m49 -54 c-3 -13 -20
-54 -40 -91 -19 -37 -40 -80 -45 -95 -8 -20 -15 -25 -30 -21 -12 3 -21 11 -21
19 0 21 22 64 33 64 6 0 8 3 4 6 -3 4 2 23 12 43 11 20 19 40 19 44 0 5 9 22
21 38 25 34 53 30 47 -7z"/>
</g>
</svg>
